PathFileType	4	(X/Y/Z)	OpenSim_Sub01_EMGBaseline_Magnet.trc
DataRate	CameraRate	NumFrames	NumMarkers	Units	OrigDataRate	OrigDataStartFrame	OrigNumFrames
100	100	33	8	m	100	4753	7604
Frame#	Time	torso_imu_offset_imu	pelvis_imu_offset_imu	tibia_r_imu_offset_imu	femur_r_imu_offset_imu	tibia_l_imu_offset_imu	femur_l_imu_offset_imu	toes_r_imu_offset_imu	toes_l_imu_offset_imu
				X1	Y1	Z1	X2	Y2	Z2	X3	Y3	Z3	X4	Y4	Z4	X5	Y5	Z5	X6	Y6	Z6	X7	Y7	Z7	X8		Y8	Z8	

4753	47.52000000	-0.91955397	-0.14185685	0.05554694	-0.73496375	0.12966448	-0.55373418	-0.31533767	-0.72526300	-0.07082336	-0.79794403	-0.20797952	0.07850700	-0.54825360	0.54894172	0.22464971	-0.45747243	-0.01858868	0.35417119	-0.75529500	-0.24768955	0.03092440	-0.71052498	-0.12579764	-0.36142792
4754	47.53000000	-0.91712399	-0.14306060	0.06138830	-0.73384231	0.13223455	-0.55267884	-0.34342644	-0.71330928	-0.07064006	-0.79969008	-0.20321519	0.07961468	-0.54092466	0.55496792	0.22703597	-0.45432801	-0.01658190	0.35898776	-0.76106135	-0.23259118	-0.00788612	-0.70940571	-0.12924217	-0.36081814
4755	47.54000000	-0.91415192	-0.14217873	0.06421743	-0.73325220	0.13374651	-0.55345767	-0.37134008	-0.69811918	-0.07005868	-0.80185406	-0.19831730	0.08009943	-0.53342758	0.56017846	0.23004413	-0.45076363	-0.01575079	0.36241834	-0.76594069	-0.21623346	-0.04687008	-0.70660343	-0.13179571	-0.35932357
4756	47.55000000	-0.91284160	-0.13976173	0.06090823	-0.73312825	0.13312973	-0.55567457	-0.39954480	-0.67885322	-0.06952242	-0.80300907	-0.19221865	0.07982416	-0.52936671	0.56350430	0.22973397	-0.44681389	-0.01152701	0.36098695	-0.77059319	-0.20128237	-0.08294679	-0.70454170	-0.13143931	-0.35967434
4757	47.56000000	-0.91372461	-0.13691551	0.05397331	-0.73316018	0.13106364	-0.55860265	-0.42803436	-0.65673652	-0.06880289	-0.80353477	-0.18630323	0.07933320	-0.52827452	0.56566830	0.22683551	-0.44311719	-0.00443437	0.35621921	-0.77367118	-0.18866251	-0.11665300	-0.70485287	-0.12851902	-0.36183151
4758	47.57000000	-0.91604524	-0.13517290	0.05026378	-0.73284929	0.12957426	-0.56126064	-0.45643882	-0.63458256	-0.06715541	-0.80520075	-0.18384064	0.07969494	-0.52655002	0.56877210	0.22567258	-0.44077622	0.00108467	0.35348936	-0.77228261	-0.17795766	-0.15130926	-0.70855943	-0.12520111	-0.36362501
4759	47.58000000	-0.91896016	-0.13527211	0.05377530	-0.73194886	0.12994947	-0.56290300	-0.48439794	-0.61408762	-0.06465647	-0.80882069	-0.18647156	0.08129076	-0.52188141	0.57417896	0.22891474	-0.44017135	0.00218758	0.35610694	-0.76513267	-0.16841338	-0.18903212	-0.71552438	-0.12324612	-0.36352663
4760	47.59000000	-0.92146425	-0.13555761	0.05968714	-0.73097547	0.13118077	-0.56350407	-0.51160821	-0.59350677	-0.06386216	-0.81226159	-0.19085223	0.08242058	-0.51602719	0.58095271	0.23404132	-0.43950120	0.00108557	0.36095221	-0.75579063	-0.15837276	-0.22814771	-0.72221219	-0.12306994	-0.36207825
4761	47.60000000	-0.92256841	-0.13408124	0.06193584	-0.73054392	0.13190751	-0.56321449	-0.53779573	-0.57057882	-0.06753163	-0.81301631	-0.19299435	0.08116031	-0.51132747	0.58777859	0.23770869	-0.43671183	0.00079499	0.36394759	-0.74843473	-0.14619110	-0.26636732	-0.72476383	-0.12478403	-0.36017888
4762	47.61000000	-0.92197096	-0.13113832	0.06025278	-0.73062744	0.13185196	-0.56283154	-0.56297296	-0.54483737	-0.07460221	-0.81113094	-0.19305433	0.07799246	-0.50756478	0.59403863	0.23861811	-0.43200592	0.00239856	0.36446887	-0.74289842	-0.13290372	-0.30268766	-0.72388193	-0.12766502	-0.35834497
4763	47.62000000	-0.91989960	-0.12875064	0.05882914	-0.73070540	0.13156998	-0.56364956	-0.58737265	-0.51719760	-0.08107011	-0.80861659	-0.19437832	0.07525155	-0.50255370	0.59965119	0.23704513	-0.42732293	0.00549036	0.36454984	-0.73567145	-0.12160785	-0.33709518	-0.72377954	-0.13034711	-0.35679817
4764	47.63000000	-0.91688969	-0.12824120	0.06054220	-0.73033643	0.13150388	-0.56610702	-0.61103431	-0.48845847	-0.08398513	-0.80684182	-0.19932912	0.07457666	-0.49520933	0.60455126	0.23351882	-0.42408058	0.00942146	0.36572903	-0.72432242	-0.11390646	-0.36986519	-0.72724306	-0.13184097	-0.35547689
4765	47.64000000	-0.91435024	-0.12872451	0.06402413	-0.72935228	0.13169494	-0.56806116	-0.63340633	-0.45896815	-0.08375258	-0.80511580	-0.20710359	0.07539884	-0.48786730	0.60868227	0.22920115	-0.42201371	0.01293459	0.36787013	-0.70988123	-0.10680489	-0.40205568	-0.73255136	-0.13232491	-0.35350033
4766	47.65000000	-0.91373933	-0.12894714	0.06719946	-0.72766886	0.13211566	-0.56712413	-0.65384706	-0.42902433	-0.08139416	-0.80245860	-0.21632166	0.07670612	-0.48326135	0.61203189	0.22534892	-0.42054451	0.01480110	0.37053175	-0.69394456	-0.09667256	-0.43471990	-0.73727252	-0.13220568	-0.34992658
4767	47.66000000	-0.91483196	-0.12825942	0.06914736	-0.72570532	0.13281911	-0.56438209	-0.67200257	-0.39941677	-0.07787166	-0.79926185	-0.22572836	0.07696604	-0.48061864	0.61522726	0.22288668	-0.41907284	0.01590283	0.37334128	-0.67701395	-0.08308281	-0.46667567	-0.74080922	-0.13207827	-0.34516564
4768	47.67000000	-0.91610784	-0.12647673	0.06983614	-0.72426803	0.13392002	-0.56359419	-0.68774043	-0.37131367	-0.07410068	-0.79697240	-0.23416535	0.07424640	-0.47646816	0.61938723	0.22248266	-0.41698156	0.01874545	0.37597913	-0.65874836	-0.06807470	-0.49502082	-0.74397603	-0.13268225	-0.34066759
4769	47.68000000	-0.91647198	-0.12373781	0.06953582	-0.72387703	0.13510198	-0.56690293	-0.70101307	-0.34542289	-0.07083570	-0.79627189	-0.24083903	0.06789190	-0.46880847	0.62496348	0.22413588	-0.41392484	0.02466738	0.37834969	-0.63931471	-0.05281420	-0.51801895	-0.74720608	-0.13436986	-0.33706365
4770	47.69000000	-0.91619198	-0.12110664	0.06934514	-0.72417206	0.13476277	-0.57144270	-0.71200802	-0.32105554	-0.06835607	-0.79548748	-0.24603228	0.06107196	-0.46021110	0.63038778	0.22587628	-0.41036437	0.03141465	0.38101871	-0.62045384	-0.03568458	-0.53752918	-0.74969108	-0.13633129	-0.33247243
4771	47.70000000	-0.91578357	-0.11974734	0.07041926	-0.72465770	0.13124428	-0.57363926	-0.72097328	-0.29738918	-0.06681961	-0.79265514	-0.25023921	0.05745717	-0.45391261	0.63390563	0.22552303	-0.40687738	0.03622933	0.38459556	-0.60411495	-0.01475120	-0.55587230	-0.75045825	-0.13761514	-0.32473139
4772	47.71000000	-0.91570534	-0.11976242	0.07246525	-0.72525180	0.12560974	-0.57316936	-0.72841088	-0.27546713	-0.06588073	-0.78796714	-0.25413706	0.05763656	-0.45044997	0.63656429	0.22318921	-0.40353581	0.03875025	0.38851298	-0.59101107	0.00897988	-0.57233087	-0.74950792	-0.13836642	-0.31442284
4773	47.72000000	-0.91637177	-0.12043734	0.07407589	-0.72619025	0.12101626	-0.57221174	-0.73501790	-0.25776853	-0.06480667	-0.78327545	-0.25854353	0.05982728	-0.44828210	0.64156649	0.22075332	-0.40002281	0.04046108	0.39129845	-0.58090379	0.03223898	-0.58384959	-0.74758961	-0.13957383	-0.30424141
4774	47.73000000	-0.91793498	-0.12122448	0.07435946	-0.72764582	0.11945822	-0.57223769	-0.74079267	-0.24620589	-0.06338546	-0.78013122	-0.26361709	0.06257963	-0.44593055	0.65048840	0.21960575	-0.39623813	0.04259127	0.39221241	-0.57378631	0.05194222	-0.58860451	-0.74561869	-0.14187525	-0.29611450
4775	47.74000000	-0.91977106	-0.12213480	0.07404130	-0.72957932	0.11931494	-0.57242503	-0.74364246	-0.24089826	-0.06298219	-0.77906504	-0.26754671	0.06561527	-0.44226187	0.65990817	0.21955171	-0.39275475	0.04547384	0.39276227	-0.57041272	0.06573091	-0.58860921	-0.74494597	-0.14480149	-0.28952829
4776	47.75000000	-0.92112449	-0.12322766	0.07407381	-0.73184685	0.11845197	-0.57163058	-0.74133341	-0.24160773	-0.06506980	-0.78031937	-0.26826599	0.06887563	-0.43629094	0.66575333	0.22007796	-0.39019687	0.04922119	0.39476090	-0.57160384	0.07158677	-0.58645518	-0.74684237	-0.14770961	-0.28353499
4777	47.76000000	-0.92141749	-0.12374182	0.07433338	-0.73332327	0.11704872	-0.57025294	-0.73530520	-0.24771681	-0.06837200	-0.78264920	-0.26533680	0.07235061	-0.42829765	0.66804240	0.22029176	-0.38809216	0.05312475	0.39837494	-0.57707417	0.07057902	-0.58276490	-0.75017856	-0.15041896	-0.27744701
4778	47.77000000	-0.92020963	-0.12228512	0.07386846	-0.73212907	0.11706494	-0.56987712	-0.72982397	-0.25831582	-0.06949707	-0.78366529	-0.25957470	0.07606739	-0.41953536	0.66994259	0.21900871	-0.38512488	0.05584437	0.40250369	-0.58568669	0.06615254	-0.57664564	-0.75197863	-0.15310472	-0.27077703
4779	47.78000000	-0.91771740	-0.11844315	0.07216187	-0.72763358	0.11935369	-0.57143666	-0.72734086	-0.27251231	-0.06620520	-0.78211845	-0.25220076	0.08009895	-0.41089316	0.67389521	0.21559273	-0.38082699	0.05657476	0.40592946	-0.59639152	0.06037627	-0.56784307	-0.75069210	-0.15587562	-0.26298080
4780	47.79000000	-0.91609892	-0.11475506	0.07005042	-0.72297451	0.12134355	-0.57383886	-0.72469776	-0.28948737	-0.05984115	-0.78023449	-0.24554519	0.08465145	-0.40210324	0.67994403	0.21105934	-0.37731377	0.05614826	0.40718369	-0.60846293	0.05104906	-0.55811566	-0.74914527	-0.15861579	-0.25332968
4781	47.80000000	-0.91766679	-0.11409846	0.06855849	-0.72173575	0.12003757	-0.57571432	-0.71804529	-0.30832003	-0.05243840	-0.78067523	-0.24200402	0.08991985	-0.39269751	0.68767827	0.20666284	-0.37697894	0.05568964	0.40493332	-0.62130222	0.03556868	-0.54940948	-0.75071497	-0.16118953	-0.24116156
4782	47.81000000	-0.92167429	-0.11624442	0.06777134	-0.72375206	0.11554452	-0.57715907	-0.70870810	-0.32635870	-0.04641921	-0.78301359	-0.24189005	0.09556360	-0.38241190	0.69651845	0.20266068	-0.37923595	0.05616878	0.40056676	-0.63531464	0.01714508	-0.54090926	-0.75490802	-0.16378574	-0.22732045
4783	47.82000000	-0.92502044	-0.11857332	0.06705140	-0.72597287	0.11036350	-0.57939661	-0.70199205	-0.33962105	-0.04450352	-0.78444527	-0.24391268	0.10082990	-0.37113968	0.70575518	0.19854302	-0.38120479	0.05843579	0.39756630	-0.65167779	0.00345930	-0.52967476	-0.75825337	-0.16684284	-0.21380874
4784	47.83000000	-0.92565949	-0.11938118	0.06585441	-0.72630595	0.10638311	-0.58284615	-0.70100814	-0.34605791	-0.04732537	-0.78302257	-0.24711334	0.10498129	-0.35914395	0.71463985	0.19390803	-0.38096500	0.06252253	0.39800633	-0.67088846	-0.00173703	-0.51368625	-0.75895547	-0.17034818	-0.20132529
4785	47.84000000	-0.92486111	-0.11986753	0.06396874	-0.72572717	0.10349520	-0.58545090	-0.70204105	-0.34946613	-0.04929789	-0.77952471	-0.25164261	0.10735738	-0.34777479	0.72231715	0.18873331	-0.37962260	0.06603887	0.39961767	-0.69136156	-0.00671002	-0.49382157	-0.76042485	-0.17292970	-0.18660704
